<?xml version="1.0" encoding="utf-8"?>
<!-- Svg Vector Icons : http://www.onlinewebfonts.com/icon -->
<!DOCTYPE svg PUBLIC "-//W3C//DTD SVG 1.1//EN" "http://www.w3.org/Graphics/SVG/1.1/DTD/svg11.dtd">
<svg version="1.1" xmlns="http://www.w3.org/2000/svg" xmlns:xlink="http://www.w3.org/1999/xlink" x="0px" y="0px" viewBox="0 0 1000 1000" enable-background="new 0 0 1000 1000" xml:space="preserve">
<metadata> Svg Vector Icons : http://www.onlinewebfonts.com/icon </metadata>
<g><g transform="translate(0.000000,511.000000) scale(0.100000,-0.100000)"><path fill-rule="evenodd" clip-rule="evenodd" d="M317.6,4954.1c-85.8-43.9-117.8-75.8-161.7-161.7L100,4686.7V120c0-3439,6-4580.7,24-4632.5c35.9-107.8,95.8-173.7,203.6-227.5l99.8-49.9H5002h4574.7l105.8,55.9c85.8,43.9,117.8,75.8,161.7,161.7l55.9,105.8V108v4574.7l-49.9,99.8c-53.9,107.8-119.7,167.7-227.5,203.6c-51.9,18-1193.6,24-4632.5,24H423.3L317.6,4954.1z M9375.1,4708.6c75.8-27.9,183.6-133.7,217.5-211.6c24-53.9,27.9-754.5,27.9-4385c0-2997.9-6-4337.2-21.9-4377.1c-27.9-75.8-133.7-183.6-211.6-217.5c-95.8-41.9-8678.3-41.9-8774.1,0c-77.9,33.9-183.6,141.7-211.6,217.5c-29.9,79.8-29.9,8670.3,0,8750.2c27.9,73.8,131.7,183.6,207.6,217.6c49.9,22,810.4,25.9,4385.1,27.9C7995.9,4730.6,9335.2,4724.6,9375.1,4708.6z"/><path d="M1636.9,1622.9V-149.5l67.9,69.9c37.9,37.9,509,562.9,1047.9,1163.6l980,1093.8v606.8v608.8H2684.7H1636.9V1622.9z"/><path d="M4956.1,2640.8c-1181.6-1363.2-2141.6-2455-2954-3355.1l-365.2-403.2v-1027.9v-1027.9h1037.9h1037.9v1053.8l2,1051.9l257.5,263.5c171.7,173.7,263.5,255.5,273.4,239.5c10-14,367.3-598.8,798.4-1301.3l780.4-1277.4l1261.4-6l1259.4-4l-37.9,53.9c-20,31.9-614.7,962-1319.3,2067.8L5704.6,980.2l546.9,562.8c299.4,309.4,822.3,848.3,1159.6,1195.6c337.3,347.3,612.8,636.7,612.8,642.7c0,6-542.9,12-1207.5,12H5610.7L4956.1,2640.8z" fill="#EDF1F7" stroke="#EDF1F7" stroke-width="0.5" stroke-linecap="round" stroke-linejoin="round"/></g></g>
</svg>